<svg xmlns="http://www.w3.org/2000/svg" xmlns:xlink="http://www.w3.org/1999/xlink" width="25px" height="25px" viewBox="0 0 351.501 352.501" enable-background="new 0 0 351.501 352.501" xml:space="preserve" fill="#D1503A"><path d="M119.444 181.188c-6.407 10.24-10.111 22.344-10.111 35.313 0 36.819 29.848 66.667 66.667 66.667s66.667-29.848 66.667-66.667S212.819 149.834 176 149.834c-8.469 0-15.334-6.865-15.334-15.333s6.865-15.334 15.334-15.334 15.334 6.865 15.334 15.334c0 3.648-1.274 7-3.402 9.632 17.872 2.924 33.572 12.31 44.623 25.679 6.406-10.239 10.112-22.343 10.112-35.312 0-36.819-29.848-66.667-66.667-66.667s-66.667 29.848-66.667 66.667 29.848 66.666 66.667 66.666c8.469 0 15.334 6.865 15.334 15.334s-6.865 15.334-15.334 15.334 -15.334-6.865-15.334-15.334c0-3.647 1.273-6.998 3.399-9.631C146.193 203.944 130.494 194.558 119.444 181.188z"/><path d="M356.687 232.057c10.24 6.407 22.344 10.111 35.313 10.111 36.819 0 66.667-29.848 66.667-66.667S428.819 108.834 392 108.834s-66.666 29.848-66.666 66.667c0 8.469-6.865 15.334-15.334 15.334s-15.334-6.865-15.334-15.334 6.865-15.334 15.334-15.334c3.648 0 7 1.274 9.633 3.402 2.924-17.872 12.31-33.572 25.679-44.623 -10.239-6.406-22.343-10.112-35.312-10.112 -36.819 0-66.667 29.848-66.667 66.667s29.848 66.667 66.667 66.667 66.666-29.848 66.666-66.667c0-8.469 6.865-15.334 15.334-15.334s15.334 6.865 15.334 15.334 -6.865 15.334-15.334 15.334c-3.647 0-6.998-1.273-9.631-3.399C379.443 205.308 370.057 221.007 356.687 232.057z"/><path d="M294.444 6.188c-6.407 10.24-10.111 22.344-10.111 35.313 0 36.819 29.848 66.667 66.667 66.667s66.667-29.848 66.667-66.667S387.819-25.166 351-25.166c-8.469 0-15.334-6.865-15.334-15.333S342.531-55.833 351-55.833s15.334 6.865 15.334 15.334c0 3.648-1.274 7-3.402 9.632 17.872 2.924 33.572 12.31 44.623 25.679 6.406-10.239 10.112-22.343 10.112-35.312 0-36.819-29.848-66.667-66.667-66.667s-66.667 29.848-66.667 66.667S314.181 26.167 351 26.167c8.469 0 15.334 6.865 15.334 15.334S359.469 56.835 351 56.835s-15.334-6.865-15.334-15.334c0-3.647 1.273-6.998 3.399-9.631C321.193 28.944 305.494 19.558 294.444 6.188z"/><path d="M181.687 57.057c10.24 6.407 22.344 10.111 35.313 10.111 36.819 0 66.667-29.848 66.667-66.667S253.819-66.166 217-66.166s-66.666 29.848-66.666 66.667c0 8.469-6.865 15.334-15.334 15.334S119.666 8.97 119.666 0.501 126.531-14.833 135-14.833c3.648 0 7 1.274 9.633 3.402 2.924-17.872 12.31-33.572 25.679-44.623C160.072-62.46 147.969-66.166 135-66.166c-36.819 0-66.667 29.848-66.667 66.667S98.181 67.168 135 67.168s66.666-29.848 66.666-66.667c0-8.469 6.865-15.334 15.334-15.334s15.334 6.865 15.334 15.334S225.469 15.835 217 15.835c-3.647 0-6.998-1.273-9.631-3.399C204.443 30.308 195.057 46.007 181.687 57.057z"/><path d="M294.444 357.188c-6.407 10.24-10.111 22.344-10.111 35.313 0 36.819 29.848 66.667 66.667 66.667s66.667-29.848 66.667-66.667S387.819 325.835 351 325.835c-8.469 0-15.334-6.865-15.334-15.334s6.865-15.334 15.334-15.334 15.334 6.865 15.334 15.334c0 3.648-1.274 7-3.402 9.633 17.872 2.924 33.572 12.31 44.623 25.679 6.406-10.239 10.112-22.343 10.112-35.312 0-36.819-29.848-66.667-66.667-66.667s-66.667 29.848-66.667 66.667 29.848 66.666 66.667 66.666c8.469 0 15.334 6.865 15.334 15.334s-6.865 15.334-15.334 15.334 -15.334-6.865-15.334-15.334c0-3.647 1.273-6.998 3.399-9.631C321.193 379.944 305.494 370.558 294.444 357.188z"/><path d="M181.687 408.057c10.24 6.407 22.344 10.111 35.313 10.111 36.819 0 66.667-29.848 66.667-66.667S253.819 284.834 217 284.834s-66.666 29.848-66.666 66.667c0 8.469-6.865 15.334-15.334 15.334s-15.334-6.865-15.334-15.334 6.865-15.334 15.334-15.334c3.648 0 7 1.274 9.633 3.402 2.924-17.872 12.31-33.572 25.679-44.623 -10.239-6.406-22.343-10.112-35.312-10.112 -36.819 0-66.667 29.848-66.667 66.667S98.181 418.168 135 418.168s66.666-29.848 66.666-66.667c0-8.469 6.865-15.334 15.334-15.334s15.334 6.865 15.334 15.334 -6.865 15.334-15.334 15.334c-3.647 0-6.998-1.273-9.631-3.399C204.443 381.308 195.057 397.007 181.687 408.057z"/><path d="M6.687 232.057c10.24 6.407 22.344 10.111 35.313 10.111 36.819 0 66.667-29.848 66.667-66.667S78.819 108.834 42 108.834s-66.666 29.848-66.666 66.667c0 8.469-6.865 15.334-15.334 15.334s-15.334-6.865-15.334-15.334 6.865-15.334 15.334-15.334c3.648 0 7 1.274 9.633 3.402 2.924-17.872 12.31-33.572 25.679-44.623C-14.928 112.54-27.031 108.834-40 108.834c-36.819 0-66.667 29.848-66.667 66.667S-76.819 242.168-40 242.168s66.666-29.848 66.666-66.667c0-8.469 6.865-15.334 15.334-15.334s15.334 6.865 15.334 15.334S50.469 190.835 42 190.835c-3.647 0-6.998-1.273-9.631-3.399C29.443 205.308 20.057 221.007 6.687 232.057z"/><path d="M-55.556 6.188c-6.407 10.24-10.111 22.344-10.111 35.313 0 36.819 29.848 66.667 66.667 66.667S67.667 78.32 67.667 41.501 37.819-25.166 1-25.166c-8.469 0-15.334-6.865-15.334-15.333S-7.469-55.833 1-55.833s15.334 6.865 15.334 15.334c0 3.648-1.274 7-3.402 9.632 17.872 2.924 33.572 12.31 44.623 25.679 6.406-10.239 10.112-22.343 10.112-35.312 0-36.819-29.848-66.667-66.667-66.667s-66.667 29.848-66.667 66.667S-35.819 26.167 1 26.167c8.469 0 15.334 6.865 15.334 15.334S9.469 56.835 1 56.835s-15.334-6.865-15.334-15.334c0-3.647 1.273-6.998 3.399-9.631C-28.807 28.944-44.506 19.558-55.556 6.188z"/><path d="M-55.556 357.188c-6.407 10.24-10.111 22.344-10.111 35.313 0 36.819 29.848 66.667 66.667 66.667s66.667-29.848 66.667-66.667S37.819 325.835 1 325.835c-8.469 0-15.334-6.865-15.334-15.334S-7.469 295.167 1 295.167s15.334 6.865 15.334 15.334c0 3.648-1.274 7-3.402 9.633 17.872 2.924 33.572 12.31 44.623 25.679 6.406-10.239 10.112-22.343 10.112-35.312 0-36.819-29.848-66.667-66.667-66.667s-66.667 29.848-66.667 66.667S-35.819 377.167 1 377.167c8.469 0 15.334 6.865 15.334 15.334S9.469 407.835 1 407.835s-15.334-6.865-15.334-15.334c0-3.647 1.273-6.998 3.399-9.631C-28.807 379.944-44.506 370.558-55.556 357.188z"/></svg>
